<?xml version="1.0" encoding="UTF-8"?>
<!DOCTYPE svg PUBLIC "-//W3C//DTD SVG 1.1//EN" "http://www.w3.org/Graphics/SVG/1.1/DTD/svg11.dtd">
<svg xmlns="http://www.w3.org/2000/svg" version="1.1" width="512px" height="512px" opacity="0.2" style="shape-rendering:geometricPrecision; text-rendering:geometricPrecision; image-rendering:optimizeQuality; fill-rule:evenodd; clip-rule:evenodd" xmlns:xlink="http://www.w3.org/1999/xlink">
<g><path style="opacity:0.992" fill="#fefffe" d="M 233.5,30.5 C 313.799,25.7476 379.965,53.7476 432,114.5C 461.331,151.303 477.831,193.303 481.5,240.5C 438.5,240.5 395.5,240.5 352.5,240.5C 343.716,196.216 317.383,168.716 273.5,158C 228.745,151.68 193.911,167.18 169,204.5C 162.733,215.802 158.566,227.802 156.5,240.5C 114.167,240.5 71.8333,240.5 29.5,240.5C 39.8802,148.533 87.2136,83.6994 171.5,46C 191.742,38.6063 212.408,33.4396 233.5,30.5 Z"/></g>
<g><path style="opacity:0.983" fill="#fefffe" d="M 247.5,194.5 C 278.118,192.329 299.951,204.996 313,232.5C 322.385,263.011 314.219,287.511 288.5,306C 271.246,315.331 253.246,316.998 234.5,311C 204.461,296.423 192.294,272.59 198,239.5C 205.517,214.478 222.017,199.478 247.5,194.5 Z"/></g>
<g><path style="opacity:0.992" fill="#fefffe" d="M 29.5,270.5 C 71.8333,270.5 114.167,270.5 156.5,270.5C 165.275,314.776 191.608,342.276 235.5,353C 280.255,359.32 315.089,343.82 340,306.5C 346.264,295.209 350.43,283.209 352.5,270.5C 395.5,270.5 438.5,270.5 481.5,270.5C 474.246,348.884 437.579,409.05 371.5,451C 308.483,486.748 242.816,492.414 174.5,468C 108.812,440.646 63.9787,393.479 40,326.5C 34.2491,308.246 30.7491,289.579 29.5,270.5 Z"/></g>
</svg>
